<svg width="43" height="40" viewBox="0 0 43 40" fill="none" xmlns="http://www.w3.org/2000/svg">
<path d="M11.9756 40C10.8565 40 10.2054 39.2097 10.2054 37.9939V32.4215H9.35086C3.6741 32.4215 0.5 29.2401 0.5 23.5866V8.83485C0.5 3.20162 3.65375 0 9.39155 0H34.1129C39.8507 0 42.9841 3.20162 42.9841 8.83485V23.5866C42.9841 29.2401 39.8507 32.462 34.1129 32.4417L21.2334 32.4215L14.2341 38.7639C13.2981 39.615 12.7488 40 11.9756 40ZM13.5626 24.1337H23.9192C25.9335 24.1337 27.0933 22.999 27.0933 21.0334V11.4083C27.0933 9.42249 26.0352 8.28774 24.0209 8.28774H13.5626C11.65 8.28774 10.3682 9.42249 10.3682 11.4083V21.0334C10.3682 22.999 11.5687 24.1337 13.5626 24.1337ZM28.2123 18.9463L31.9969 22.1682C32.3631 22.4519 32.77 22.6545 33.1159 22.6545C33.8891 22.6545 34.3978 22.1277 34.3978 21.2766V11.1449C34.3978 10.3141 33.8891 9.78723 33.1159 9.78723C32.77 9.78723 32.3428 9.98987 31.9969 10.2533L28.2123 13.4752V18.9463Z" fill="#4178F3"/>
</svg>
