<svg width="212" height="60" viewBox="0 0 212 60" fill="none" xmlns="http://www.w3.org/2000/svg">
<path d="M18.1274 60C16.4487 60 15.4721 58.8146 15.4721 56.9909V48.6322H14.1902C5.67511 48.6322 0.913956 43.8602 0.913956 35.3799V13.2523C0.913956 4.80243 5.64459 0 14.2513 0H51.3334C59.9401 0 64.6402 4.80243 64.6402 13.2523V35.3799C64.6402 43.8602 59.9401 48.693 51.3334 48.6626L32.0141 48.6322L21.5151 58.1459C20.1112 59.4225 19.2871 60 18.1274 60ZM20.5079 36.2006H36.0427C39.0642 36.2006 40.8039 34.4985 40.8039 31.5502V17.1125C40.8039 14.1337 39.2168 12.4316 36.1953 12.4316H20.5079C17.639 12.4316 15.7163 14.1337 15.7163 17.1125V31.5502C15.7163 34.4985 17.517 36.2006 20.5079 36.2006ZM42.4825 28.4195L48.1593 33.2523C48.7086 33.6778 49.319 33.9818 49.8379 33.9818C50.9976 33.9818 51.7606 33.1915 51.7606 31.9149V16.7173C51.7606 15.4711 50.9976 14.6809 49.8379 14.6809C49.319 14.6809 48.6781 14.9848 48.1593 15.3799L42.4825 20.2128V28.4195Z" fill="#4178F3"/>
<path d="M83.1211 40V19.3676H96.5402V22.5008H86.8587V28.1021H95.845V31.2353H86.8587V36.8669H96.6208V40H83.1211ZM105.64 40.272C104.424 40.272 103.336 39.9597 102.376 39.3351C101.415 38.7105 100.656 37.8038 100.099 36.615C99.5412 35.4262 99.2625 33.9822 99.2625 32.283C99.2625 30.5636 99.5446 29.1129 100.109 27.9309C100.68 26.7421 101.449 25.8455 102.416 25.241C103.383 24.6298 104.461 24.3242 105.65 24.3242C106.556 24.3242 107.302 24.4787 107.886 24.7877C108.471 25.0899 108.934 25.4559 109.276 25.8858C109.619 26.3089 109.884 26.7085 110.072 27.0846H110.223V19.3676H113.88V40H110.294V37.562H110.072C109.884 37.9381 109.612 38.3377 109.256 38.7608C108.9 39.1773 108.43 39.5332 107.846 39.8287C107.262 40.1243 106.526 40.272 105.64 40.272ZM106.657 37.2799C107.429 37.2799 108.088 37.0717 108.632 36.6553C109.176 36.2322 109.589 35.6445 109.871 34.8923C110.153 34.1401 110.294 33.2636 110.294 32.2629C110.294 31.2621 110.153 30.3924 109.871 29.6536C109.595 28.9148 109.186 28.3406 108.642 27.9309C108.104 27.5212 107.443 27.3163 106.657 27.3163C105.844 27.3163 105.166 27.5279 104.622 27.951C104.078 28.3741 103.668 28.9585 103.393 29.704C103.118 30.4495 102.98 31.3024 102.98 32.2629C102.98 33.23 103.118 34.093 103.393 34.852C103.675 35.6042 104.088 36.1986 104.632 36.6352C105.183 37.065 105.858 37.2799 106.657 37.2799ZM127.335 33.4919V24.5257H130.982V40H127.445V37.2497H127.284C126.935 38.1161 126.361 38.8247 125.561 39.3754C124.769 39.9261 123.792 40.2015 122.63 40.2015C121.616 40.2015 120.719 39.9765 119.94 39.5265C119.168 39.0698 118.563 38.4082 118.127 37.5418C117.69 36.6687 117.472 35.6143 117.472 34.3785V24.5257H121.119V33.8143C121.119 34.7949 121.387 35.574 121.925 36.1516C122.462 36.7292 123.167 37.018 124.04 37.018C124.578 37.018 125.098 36.887 125.602 36.6251C126.106 36.3631 126.519 35.9736 126.841 35.4564C127.17 34.9326 127.335 34.2777 127.335 33.4919ZM137.358 19.3676L142.728 35.6076H142.94L148.299 19.3676H152.41L145.136 40H140.522L133.258 19.3676H137.358ZM159.859 40.3022C158.308 40.3022 156.968 39.9799 155.84 39.3351C154.718 38.6836 153.855 37.7635 153.25 36.5747C152.646 35.3792 152.344 33.9722 152.344 32.3535C152.344 30.7618 152.646 29.3648 153.25 28.1626C153.862 26.9537 154.715 26.0134 155.809 25.3418C156.904 24.6634 158.19 24.3242 159.668 24.3242C160.622 24.3242 161.522 24.4787 162.368 24.7877C163.221 25.0899 163.973 25.56 164.624 26.1981C165.283 26.8361 165.8 27.6488 166.176 28.6361C166.552 29.6167 166.74 30.7853 166.74 32.142V33.2602H154.056V30.8021H163.244C163.238 30.1036 163.086 29.4823 162.791 28.9383C162.495 28.3876 162.082 27.9544 161.552 27.6387C161.028 27.3231 160.417 27.1652 159.718 27.1652C158.973 27.1652 158.318 27.3466 157.754 27.7092C157.19 28.0652 156.75 28.5353 156.434 29.1197C156.125 29.6973 155.967 30.3319 155.961 31.0237V33.1696C155.961 34.0695 156.125 34.8419 156.454 35.4867C156.783 36.1247 157.243 36.615 157.834 36.9575C158.425 37.2933 159.117 37.4613 159.91 37.4613C160.44 37.4613 160.92 37.3874 161.35 37.2396C161.78 37.0851 162.153 36.8601 162.469 36.5646C162.784 36.2691 163.023 35.9031 163.184 35.4665L166.589 35.8493C166.374 36.7493 165.964 37.5351 165.36 38.2068C164.762 38.8717 163.997 39.3888 163.063 39.7582C162.129 40.1209 161.062 40.3022 159.859 40.3022ZM169.53 40V24.5257H173.067V27.1048H173.228C173.51 26.2115 173.993 25.5231 174.678 25.0395C175.37 24.5492 176.159 24.3041 177.046 24.3041C177.247 24.3041 177.472 24.3142 177.721 24.3343C177.976 24.3477 178.188 24.3713 178.356 24.4048V27.7596C178.201 27.7059 177.956 27.6589 177.62 27.6186C177.291 27.5716 176.972 27.548 176.663 27.548C175.998 27.548 175.4 27.6924 174.87 27.9812C174.346 28.2633 173.933 28.6562 173.631 29.16C173.329 29.6637 173.177 30.2446 173.177 30.9028V40H169.53ZM192.714 28.6159L189.389 28.9786C189.295 28.6428 189.131 28.3271 188.896 28.0316C188.667 27.7361 188.358 27.4977 187.969 27.3163C187.579 27.135 187.102 27.0443 186.538 27.0443C185.779 27.0443 185.141 27.2089 184.624 27.538C184.114 27.8671 183.862 28.2936 183.869 28.8174C183.862 29.2674 184.026 29.6334 184.362 29.9155C184.705 30.1976 185.269 30.4293 186.055 30.6107L188.694 31.1748C190.158 31.4905 191.246 31.9909 191.958 32.6759C192.677 33.361 193.04 34.2576 193.046 35.3658C193.04 36.3396 192.754 37.1993 192.19 37.9448C191.633 38.6836 190.857 39.2612 189.863 39.6776C188.869 40.094 187.727 40.3022 186.438 40.3022C184.544 40.3022 183.019 39.906 181.864 39.1135C180.709 38.3142 180.02 37.2027 179.799 35.7788L183.355 35.4363C183.516 36.1348 183.859 36.662 184.382 37.018C184.906 37.3739 185.588 37.5519 186.428 37.5519C187.294 37.5519 187.989 37.3739 188.513 37.018C189.043 36.662 189.309 36.2221 189.309 35.6982C189.309 35.255 189.138 34.8889 188.795 34.6001C188.459 34.3113 187.935 34.0897 187.223 33.9352L184.584 33.3811C183.1 33.0722 182.001 32.5517 181.29 31.8196C180.578 31.0808 180.225 30.1472 180.232 29.0189C180.225 28.0652 180.484 27.2391 181.007 26.5406C181.538 25.8354 182.274 25.2914 183.214 24.9086C184.161 24.519 185.252 24.3242 186.488 24.3242C188.301 24.3242 189.729 24.7104 190.77 25.4828C191.817 26.2552 192.465 27.2995 192.714 28.6159ZM202.609 40.3022C201.058 40.3022 199.718 39.9799 198.59 39.3351C197.468 38.6836 196.605 37.7635 196 36.5747C195.396 35.3792 195.094 33.9722 195.094 32.3535C195.094 30.7618 195.396 29.3648 196 28.1626C196.612 26.9537 197.465 26.0134 198.559 25.3418C199.654 24.6634 200.94 24.3242 202.418 24.3242C203.372 24.3242 204.272 24.4787 205.118 24.7877C205.971 25.0899 206.723 25.56 207.374 26.1981C208.033 26.8361 208.55 27.6488 208.926 28.6361C209.302 29.6167 209.49 30.7853 209.49 32.142V33.2602H196.806V30.8021H205.994C205.988 30.1036 205.836 29.4823 205.541 28.9383C205.245 28.3876 204.832 27.9544 204.302 27.6387C203.778 27.3231 203.167 27.1652 202.468 27.1652C201.723 27.1652 201.068 27.3466 200.504 27.7092C199.94 28.0652 199.5 28.5353 199.184 29.1197C198.875 29.6973 198.717 30.3319 198.71 31.0237V33.1696C198.71 34.0695 198.875 34.8419 199.204 35.4867C199.533 36.1247 199.993 36.615 200.584 36.9575C201.175 37.2933 201.867 37.4613 202.66 37.4613C203.19 37.4613 203.67 37.3874 204.1 37.2396C204.53 37.0851 204.903 36.8601 205.219 36.5646C205.534 36.2691 205.773 35.9031 205.934 35.4665L209.339 35.8493C209.124 36.7493 208.714 37.5351 208.11 38.2068C207.512 38.8717 206.746 39.3888 205.813 39.7582C204.879 40.1209 203.811 40.3022 202.609 40.3022Z" fill="#4178F3"/>
</svg>
